<svg id="content" xmlns="http://www.w3.org/2000/svg" viewBox="0 0 61.25 68.11"><defs><style>.cls-1{fill:#3182ce;}.cls-2{fill:#f6f6f6;}.cls-3{fill:#fff;}.cls-4{fill:#150035;}</style></defs><title>react</title><g id="illustration"><g id="_Group_" data-name="&lt;Group&gt;"><g id="_Group_2" data-name="&lt;Group&gt;"><g id="_Group_3" data-name="&lt;Group&gt;"><g id="_Group_4" data-name="&lt;Group&gt;"><path id="_Path_" data-name="&lt;Path&gt;" class="cls-1" d="M33.83,3.12h-.27a.75.75,0,0,1-.15,0h0A16.43,16.43,0,0,0,25.07,5.9C16,11.53,8.57,24.57,8.36,35.16c-.12,5.69,1.78,9.7,4.91,11.61l.19.13,6.45,3.74a14.68,14.68,0,0,1,3.82,7.58l.33,1.65a1.18,1.18,0,0,0,.17.41v0s1.82,4.62,9.12,5.54a.46.46,0,0,0,.53-.37l8-41.65a31.73,31.73,0,0,0,1.18-6.15l.7-3.62,5-3.2S42.94,3.08,33.83,3.12Z"/><path id="_Compound_Path_" data-name="&lt;Compound Path&gt;" class="cls-2" d="M33.41,66.27H33.3c-7.46-.94-9.38-5.6-9.46-5.8l0-.06a1.35,1.35,0,0,1-.17-.44l-.33-1.66A14.27,14.27,0,0,0,19.65,51l-6.4-3.71L13,47.12c-3.39-2.08-5.21-6.34-5.1-12,.22-10.66,7.81-23.94,16.92-29.61a17,17,0,0,1,8.3-2.83l.25,0h.38l0,.42V2.7c9.23-.05,15.25,7.81,15.31,7.89l.27.37-5.25,3.35-.66,3.44a31.94,31.94,0,0,1-1.2,6.19l-8,41.6A.91.91,0,0,1,33.41,66.27Zm-8.75-6c.28.63,2.25,4.37,8.75,5.2a.08.08,0,0,0,.06,0l8-41.65a30.26,30.26,0,0,0,1.18-6.11l.74-3.84,4.78-3c-1.27-1.49-6.63-7.2-14.28-7.2h-.47A16.09,16.09,0,0,0,25.3,6.26C16.4,11.79,9,24.76,8.78,35.16c-.11,5.33,1.56,9.32,4.71,11.25l.21.14h0l6.42,3.73.09.07a15,15,0,0,1,3.93,7.79l.34,1.65a.64.64,0,0,0,.12.27l.06.11Z"/></g><g id="_Group_5" data-name="&lt;Group&gt;"><path id="_Path_2" data-name="&lt;Path&gt;" class="cls-3" d="M33.2,35.66l6.85-20.77s-2.6-7.28-14.39-9.35c-.22.13-.43.22-.65.36C18.19,10.14,12.29,18.79,9.69,27.22,9.69,27.22,14.82,33.72,33.2,35.66Z"/><path id="_Compound_Path_2" data-name="&lt;Compound Path&gt;" class="cls-2" d="M33.49,36.12l-.34,0C14.9,34.15,9.58,27.75,9.36,27.48l-.14-.17.07-.22c2.76-8.95,8.84-17.41,15.49-21.55l.4-.22.26-.14.14-.08.15,0c11.9,2.09,14.6,9.31,14.71,9.61l.05.14,0,.14Zm-23.33-9c.94,1,6.5,6.31,22.74,8.08l6.7-20.3c-.42-1-3.45-7-13.87-8.92l-.16.09a1.93,1.93,0,0,0-.34.19C18.79,10.26,12.9,18.43,10.16,27.12Z"/></g><g id="_Group_6" data-name="&lt;Group&gt;"><path id="_Path_3" data-name="&lt;Path&gt;" class="cls-4" d="M52.08,20.71c0-11.37-8.17-15.82-18.1-9.64C24.92,16.7,17.47,29.74,17.26,40.32,17.12,47,19.75,51.39,23.9,52.76c4.37,1.45,7.6,5,8.73,10.63L33,65c.16.84.87,1.09,1.7.62h0a3.92,3.92,0,0,0,1.7-2.58l.25-1.5a51.7,51.7,0,0,1,8.45-20.72C49.33,34.74,52.08,27.31,52.08,20.71Z"/><path id="_Compound_Path_3" data-name="&lt;Compound Path&gt;" class="cls-2" d="M33.89,66.32a1.3,1.3,0,0,1-.55-.12,1.41,1.41,0,0,1-.79-1.08l-.33-1.65c-1.06-5.26-4-8.83-8.45-10.31S16.7,47,16.84,40.32c.21-10.66,7.8-23.94,16.92-29.61C38.74,7.61,43.47,7,47.07,9s5.43,6.1,5.43,11.71c0,6.48-2.58,13.91-7.08,20.39A51.36,51.36,0,0,0,37,61.65l-.24,1.49A4.33,4.33,0,0,1,34.88,66,2,2,0,0,1,33.89,66.32ZM42.44,8.69a16,16,0,0,0-8.24,2.73C25.3,17,17.89,29.93,17.68,40.33,17.55,46.6,19.87,51,24,52.36c4.71,1.56,7.91,5.45,9,10.94L33.38,65a.6.6,0,0,0,.3.47.88.88,0,0,0,.78-.14A3.44,3.44,0,0,0,36,63l.24-1.5a52.21,52.21,0,0,1,8.53-20.89c4.4-6.34,6.93-13.6,6.93-19.91,0-5.29-1.78-9.18-5-11A8.6,8.6,0,0,0,42.44,8.69Z"/></g><g id="_Group_7" data-name="&lt;Group&gt;"><ellipse id="_Path_4" data-name="&lt;Path&gt;" class="cls-4" cx="34.67" cy="30.76" rx="13.86" ry="8" transform="translate(-9.31 45.4) rotate(-60)"/><path id="_Compound_Path_4" data-name="&lt;Compound Path&gt;" class="cls-1" d="M30.29,43.84a5.51,5.51,0,0,1-2.76-.71c-2-1.15-3.08-3.53-3.08-6.71a20.41,20.41,0,0,1,2.92-9.87,20.4,20.4,0,0,1,7.09-7.47c2.75-1.59,5.36-1.83,7.35-.69,4,2.33,4.09,9.76.15,16.58h0a20.3,20.3,0,0,1-7.08,7.47A9.31,9.31,0,0,1,30.29,43.84ZM39,18.53a8.53,8.53,0,0,0-4.16,1.28A19.57,19.57,0,0,0,28.1,27a19.54,19.54,0,0,0-2.81,9.45c0,2.86.94,5,2.66,6s4,.74,6.51-.69a19.47,19.47,0,0,0,6.77-7.16c3.71-6.42,3.78-13.34.16-15.43A4.66,4.66,0,0,0,39,18.53Z"/></g><g id="_Group_8" data-name="&lt;Group&gt;"><path id="_Path_5" data-name="&lt;Path&gt;" class="cls-3" d="M27.73,26.75C24.54,32.28,24,38.17,26.15,41.26c3.73.23,8.51-3.16,11.68-8.64s3.71-11.41,1.57-14.5C35.68,17.89,30.9,21.27,27.73,26.75Z"/><path id="_Compound_Path_5" data-name="&lt;Compound Path&gt;" class="cls-1" d="M26.53,41.69h-.4l-.21,0-.11-.16c-2.27-3.29-1.63-9.44,1.56-15h0c3.2-5.54,8-9.09,12.06-8.84h.21l.11.17c2.27,3.28,1.63,9.43-1.56,15C35.1,38.19,30.46,41.69,26.53,41.69Zm-.14-.85c3.58.08,8.13-3.34,11.07-8.43s3.66-10.81,1.71-13.88C35.58,18.47,31,21.87,28.1,27h0C25.12,32.11,24.44,37.77,26.39,40.84Z"/></g></g><g id="_Group_9" data-name="&lt;Group&gt;"><rect id="_Path_6" data-name="&lt;Path&gt;" class="cls-1" x="41.95" y="23.73" width="0.84" height="4.21" transform="translate(-0.45 50.91) rotate(-61.72)"/></g><g id="_Group_10" data-name="&lt;Group&gt;"><rect id="_Path_7" data-name="&lt;Path&gt;" class="cls-1" x="31.62" y="39.44" width="0.84" height="4.21" transform="translate(-19.73 50.09) rotate(-61.72)"/></g><g id="_Group_11" data-name="&lt;Group&gt;"><path id="_Path_8" data-name="&lt;Path&gt;" class="cls-4" d="M32.48,63.78a24.32,24.32,0,0,1-9.24-6l.65-.55A23.57,23.57,0,0,0,32.79,63Z"/></g><g id="_Group_12" data-name="&lt;Group&gt;"><path id="_Path_9" data-name="&lt;Path&gt;" class="cls-4" d="M17.57,45.66a56.76,56.76,0,0,1-9-5.4l.5-.67a56.46,56.46,0,0,0,8.87,5.3Z"/></g><g id="_Group_13" data-name="&lt;Group&gt;"><path id="_Path_10" data-name="&lt;Path&gt;" class="cls-4" d="M39.81,8.88c-6.26-4.22-10.19-4.7-10.23-4.7l.09-.84c.17,0,4.15.49,10.61,4.84Z"/></g><g id="_Group_14" data-name="&lt;Group&gt;"><g id="_Group_15" data-name="&lt;Group&gt;"><rect id="_Path_11" data-name="&lt;Path&gt;" class="cls-1" x="39" y="49.47" width="2.18" height="0.84" transform="translate(-21.58 67.02) rotate(-66.74)"/></g><g id="_Group_16" data-name="&lt;Group&gt;"><rect id="_Path_12" data-name="&lt;Path&gt;" class="cls-1" x="36.03" y="59.46" width="1.82" height="0.84" transform="translate(-29.11 84.15) rotate(-78.51)"/></g></g></g></g></g></svg>