<svg id="content" xmlns="http://www.w3.org/2000/svg" viewBox="0 0 51.83 71.49"><defs><style>.cls-1{fill:#a9a1b5;}.cls-2{fill:#150035;}.cls-3{fill:#fff;}</style></defs><title>18303692 [Converted pir]</title><g id="illustration"><g id="_Group_" data-name="&lt;Group&gt;"><g id="_Group_2" data-name="&lt;Group&gt;"><g id="_Group_3" data-name="&lt;Group&gt;"><g id="_Group_4" data-name="&lt;Group&gt;"><path id="_Path_" data-name="&lt;Path&gt;" class="cls-1" d="M29.37,5.16H29a16.37,16.37,0,0,0-8.33,2.78C11.56,13.57,4.11,26.61,3.9,37.2c-.12,5.7,1.78,9.7,4.91,11.61l.19.13,6.45,3.75a14.57,14.57,0,0,1,3.82,7.57l.33,1.66a1.22,1.22,0,0,0,.18.4v0s1.82,4.61,9.12,5.54a.48.48,0,0,0,.53-.38l8-41.65a30.86,30.86,0,0,0,1.18-6.15l.7-3.62,5-3.2S38.48,5.12,29.37,5.16Z"/><path id="_Compound_Path_" data-name="&lt;Compound Path&gt;" class="cls-2" d="M29,68.31h-.12c-7.46-.94-9.38-5.6-9.46-5.8l0-.06a1.5,1.5,0,0,1-.17-.44l-.33-1.66A14.27,14.27,0,0,0,15.19,53l-6.4-3.71-.22-.15c-3.39-2.08-5.21-6.33-5.09-12,.21-10.66,7.8-23.94,16.91-29.61a17.05,17.05,0,0,1,8.3-2.83l.25,0h.38l.05.42V4.74c9.23,0,15.24,7.81,15.3,7.89L45,13l-5.26,3.35L39,19.79A31.94,31.94,0,0,1,37.83,26l-8,41.61A.9.9,0,0,1,29,68.31Zm-8.76-6c.29.63,2.25,4.37,8.75,5.2,0,0,.06,0,.06,0l8-41.64a31.14,31.14,0,0,0,1.17-6.12l.74-3.84,4.78-3c-1.27-1.5-6.63-7.21-14.28-7.21H29A16,16,0,0,0,20.84,8.3C11.94,13.83,4.53,26.8,4.32,37.21,4.21,42.53,5.88,46.52,9,48.45l.21.15h0l6.42,3.72.09.07a15,15,0,0,1,3.93,7.79L20,61.83a.8.8,0,0,0,.12.27l.07.12Z"/></g><g id="_Group_5" data-name="&lt;Group&gt;"><path id="_Path_2" data-name="&lt;Path&gt;" class="cls-3" d="M28.74,37.7l6.85-20.77S33,9.66,21.2,7.58c-.22.13-.43.22-.65.36C13.73,12.18,7.83,20.83,5.23,29.26,5.24,29.26,10.37,35.76,28.74,37.7Z"/><path id="_Compound_Path_2" data-name="&lt;Compound Path&gt;" class="cls-2" d="M29,38.16l-.34,0C10.44,36.19,5.12,29.79,4.9,29.52l-.13-.17.06-.22c2.76-8.95,8.84-17.41,15.49-21.55l.41-.22L21,7.22l.13-.08.15,0C33.17,9.26,35.88,16.48,36,16.79l.05.13,0,.14Zm-23.32-9c.93,1,6.49,6.31,22.73,8.09l6.7-20.31c-.42-1-3.45-7-13.87-8.91l-.15.08-.35.19C14.33,12.3,8.44,20.47,5.71,29.16Z"/></g><g id="_Group_6" data-name="&lt;Group&gt;"><path id="_Path_3" data-name="&lt;Path&gt;" class="cls-2" d="M47.62,22.75c0-11.37-8.17-15.82-18.1-9.64C20.46,18.74,13,31.78,12.8,42.37c-.14,6.68,2.49,11.06,6.64,12.43,4.37,1.45,7.6,5,8.73,10.63l.34,1.65c.16.84.88,1.1,1.7.62h0a3.89,3.89,0,0,0,1.7-2.58l.25-1.5A52,52,0,0,1,40.61,42.9C44.87,36.78,47.62,29.35,47.62,22.75Z"/><path id="_Compound_Path_3" data-name="&lt;Compound Path&gt;" class="cls-2" d="M29.43,68.36a1.3,1.3,0,0,1-.55-.12,1.43,1.43,0,0,1-.79-1.07l-.33-1.66c-1.06-5.26-4-8.83-8.45-10.31S12.24,49,12.38,42.36C12.6,31.7,20.19,18.42,29.3,12.75,34.28,9.65,39,9,42.61,11s5.44,6.1,5.44,11.71c0,6.48-2.59,13.92-7.09,20.39a51.2,51.2,0,0,0-8.38,20.55l-.25,1.5a4.32,4.32,0,0,1-1.91,2.88A2,2,0,0,1,29.43,68.36ZM38,10.73a15.93,15.93,0,0,0-8.24,2.74C20.84,19,13.43,32,13.22,42.37c-.13,6.27,2.19,10.65,6.35,12,4.71,1.56,7.91,5.45,9,10.94L28.92,67a.62.62,0,0,0,.31.48.93.93,0,0,0,.77-.14,3.49,3.49,0,0,0,1.5-2.29l.24-1.49a52.19,52.19,0,0,1,8.53-20.9c4.41-6.34,6.93-13.59,6.93-19.91,0-5.29-1.77-9.18-5-11A8.47,8.47,0,0,0,38,10.73Z"/></g><g id="_Group_7" data-name="&lt;Group&gt;"><ellipse id="_Path_4" data-name="&lt;Path&gt;" class="cls-2" cx="30.21" cy="32.8" rx="13.86" ry="8" transform="translate(-13.3 42.56) rotate(-60)"/><path id="_Compound_Path_4" data-name="&lt;Compound Path&gt;" class="cls-1" d="M25.83,45.88a5.41,5.41,0,0,1-2.76-.71C21.08,44,20,41.64,20,38.46a20.32,20.32,0,0,1,2.93-9.87A20.3,20.3,0,0,1,30,21.12c2.75-1.59,5.36-1.83,7.35-.68,4,2.32,4.09,9.75.15,16.57h0a20.22,20.22,0,0,1-7.08,7.47A9.31,9.31,0,0,1,25.83,45.88Zm8.75-25.31a8.53,8.53,0,0,0-4.16,1.28A19.55,19.55,0,0,0,23.65,29a19.48,19.48,0,0,0-2.82,9.45c0,2.87,1,5,2.66,6s4,.75,6.51-.69a19.47,19.47,0,0,0,6.77-7.16c3.71-6.41,3.78-13.33.16-15.42A4.62,4.62,0,0,0,34.58,20.57Z"/></g><g id="_Group_8" data-name="&lt;Group&gt;"><path id="_Path_5" data-name="&lt;Path&gt;" class="cls-2" d="M23.27,28.79c-3.19,5.53-3.71,11.42-1.58,14.51,3.73.23,8.51-3.16,11.68-8.63S37.08,23.25,35,20.16C31.22,19.93,26.44,23.31,23.27,28.79Z"/><path id="_Compound_Path_5" data-name="&lt;Compound Path&gt;" class="cls-1" d="M22.07,43.73h-.61l-.11-.17c-2.27-3.29-1.63-9.44,1.56-15h0C26.11,23,31,19.49,35,19.74h.21l.11.17c2.27,3.29,1.63,9.44-1.56,15C30.64,40.23,26,43.73,22.07,43.73Zm-.14-.84c3.58.07,8.13-3.35,11.07-8.43s3.66-10.82,1.71-13.89c-3.59-.06-8.13,3.34-11.07,8.43h0C20.67,34.15,20,39.82,21.93,42.89Z"/></g></g><g id="_Group_9" data-name="&lt;Group&gt;"><rect id="_Path_6" data-name="&lt;Path&gt;" class="cls-1" x="37.49" y="25.77" width="0.84" height="4.21" transform="translate(-4.59 48.06) rotate(-61.72)"/></g><g id="_Group_10" data-name="&lt;Group&gt;"><rect id="_Path_7" data-name="&lt;Path&gt;" class="cls-1" x="27.17" y="41.49" width="0.84" height="4.21" transform="translate(-23.87 47.24) rotate(-61.72)"/></g><g id="_Group_11" data-name="&lt;Group&gt;"><path id="_Path_8" data-name="&lt;Path&gt;" class="cls-2" d="M28,65.82a24.29,24.29,0,0,1-9.24-6l.65-.55A23.68,23.68,0,0,0,28.33,65Z"/></g><g id="_Group_12" data-name="&lt;Group&gt;"><path id="_Path_9" data-name="&lt;Path&gt;" class="cls-2" d="M13.11,47.7a57.3,57.3,0,0,1-9-5.4l.5-.67a57,57,0,0,0,8.87,5.3Z"/></g><g id="_Group_13" data-name="&lt;Group&gt;"><path id="_Path_10" data-name="&lt;Path&gt;" class="cls-2" d="M35.35,10.92c-6.26-4.21-10.19-4.69-10.23-4.7l.09-.84c.17,0,4.15.49,10.61,4.84Z"/></g><g id="_Group_14" data-name="&lt;Group&gt;"><g id="_Group_15" data-name="&lt;Group&gt;"><rect id="_Path_11" data-name="&lt;Path&gt;" class="cls-1" x="34.54" y="51.52" width="2.18" height="0.84" transform="translate(-26.16 64.16) rotate(-66.74)"/></g><g id="_Group_16" data-name="&lt;Group&gt;"><rect id="_Path_12" data-name="&lt;Path&gt;" class="cls-1" x="31.57" y="61.51" width="1.82" height="0.84" transform="translate(-34.68 81.42) rotate(-78.51)"/></g></g></g></g></g></svg>